<svg fill="#00af86" id="Icons" height="512" viewBox="0 0 74 74" width="512" xmlns="http://www.w3.org/2000/svg"><path d="m54.1 72h-38.222a6.3 6.3 0 0 1 -6.378-6.114c0-4.456 3.8-8.295 9.335-9.569 1.385-5.4 7.771-9.4 15.215-9.4 7.345 0 13.551 3.765 15.113 9.053 6.5.708 11.32 4.847 11.32 9.845v.058a6.3 6.3 0 0 1 -6.383 6.127zm-20.051-23.079c-6.792 0-12.549 3.617-13.39 8.414a1 1 0 0 1 -.8.81c-4.922.932-8.36 4.087-8.36 7.674a4.3 4.3 0 0 0 4.379 4.181h38.222a4.292 4.292 0 0 0 4.379-4.132l1-.049h-1c0-4.049-4.473-7.525-10.183-7.914a1 1 0 0 1 -.911-.793c-.974-4.669-6.708-8.191-13.336-8.191z"/><path d="m34.968 48.954h-.075a1 1 0 0 1 -.923-1.072 42.986 42.986 0 0 1 1.354-7.95 44.1 44.1 0 0 1 15.851-23.74 1 1 0 1 1 1.215 1.588 42.094 42.094 0 0 0 -15.134 22.664 40.978 40.978 0 0 0 -1.292 7.584 1 1 0 0 1 -.996.926z"/><path d="m50.735 33.9a22.893 22.893 0 0 1 -10.68-3.127 1 1 0 0 1 -.439-.474c-.168-.375-4.036-9.278.861-17.157 4.247-6.827 13.634-10.577 27.904-11.142a1 1 0 0 1 1.038 1.031c-.029.924-.857 22.694-12.014 29.122a13.138 13.138 0 0 1 -6.67 1.747zm-9.416-4.721c5.986 3.139 11.059 3.556 15.086 1.238 8.865-5.1 10.636-21.924 10.952-26.367-12.943.676-21.413 4.089-25.181 10.15-3.869 6.226-1.456 13.426-.857 14.984z"/><path d="m36.29 41.191a1 1 0 0 1 -.924-.617 29.409 29.409 0 0 0 -6.5-9.661 29.14 29.14 0 0 0 -9.735-6.37 1 1 0 1 1 .744-1.856 31.145 31.145 0 0 1 10.4 6.805 31.435 31.435 0 0 1 6.94 10.314 1 1 0 0 1 -.924 1.384z"/><path d="m20.832 35.539a9.415 9.415 0 0 1 -2.341-.3c-8.933-2.28-13.668-17.024-13.865-17.65a1 1 0 0 1 .723-1.273c9.878-2.344 17.038-1.558 21.286 2.336 4.925 4.515 3.969 11.43 3.926 11.723a1 1 0 0 1 -.3.575c-3.172 3.05-6.335 4.589-9.429 4.589zm-13.939-17.524c1.218 3.314 5.487 13.6 12.1 15.29 3.038.776 6.272-.418 9.627-3.548.106-1.324.248-6.361-3.346-9.643s-9.774-3.978-18.381-2.099z"/></svg>